<svg _ngcontent-xbr-c69="" xmlns="http://www.w3.org/2000/svg" xmlns:xlink="http://www.w3.org/1999/xlink" viewBox="0 0 664.653 256.962" class="bk-1"><defs _ngcontent-xbr-c69=""><linearGradient _ngcontent-xbr-c69="" id="l-g" x1="1" y1="0.5" x2="0" y2="0.5" gradientUnits="objectBoundingBox"><stop _ngcontent-xbr-c69="" offset="0" stop-color="#07c6ae"/><stop _ngcontent-xbr-c69="" offset="0.65" stop-color="#1093a6"/></linearGradient><linearGradient _ngcontent-xbr-c69="" id="l-g-2" x1="0.608" y1="0.495" x2="0.085" y2="0.957" xlink:href="#l-g"/><linearGradient _ngcontent-xbr-c69="" id="l-g-3" x1="0.655" y1="-0.174" x2="0.165" y2="1.171" gradientUnits="objectBoundingBox"><stop _ngcontent-xbr-c69="" offset="0" stop-color="#07c6ae" stop-opacity="0.2"/><stop _ngcontent-xbr-c69="" offset="0.65" stop-color="#1093a6"/></linearGradient><clipPath _ngcontent-xbr-c69="" id="clip-p"><path _ngcontent-xbr-c69="" id="p_12" data-name="p 12" d="M428.451,659.276c15.426,20.915,22.981,41.52,16.875,46.023s-23.561-8.8-38.986-29.715-22.981-41.519-16.875-46.023S413.025,638.363,428.451,659.276Z" transform="translate(-387.348 -628.685)" fill="none"/></clipPath><linearGradient _ngcontent-xbr-c69="" id="l-g-4" x1="0.234" y1="0.647" x2="0.749" y2="0.362" gradientUnits="objectBoundingBox"><stop _ngcontent-xbr-c69="" offset="0.35" stop-color="#1093a6"/><stop _ngcontent-xbr-c69="" offset="1" stop-color="#07c6ae"/></linearGradient><linearGradient _ngcontent-xbr-c69="" id="l-g-5" x1="-0.032" y1="0.872" x2="0.879" y2="0.142" xlink:href="#l-g-4"/><linearGradient _ngcontent-xbr-c69="" id="l-g-6" x1="-124.586" y1="17.212" x2="-123.415" y2="16.649" xlink:href="#l-g-4"/><clipPath _ngcontent-xbr-c69="" id="clip-p-2"><rect _ngcontent-xbr-c69="" id="Rectangle_3" data-name="Rectangle 3" width="664.653" height="188.962" transform="translate(0 578)" fill="none"/></clipPath></defs><g _ngcontent-xbr-c69="" id="Group_1371" data-name="Group 1371" transform="translate(0 -511)"><g _ngcontent-xbr-c69="" id="Group_9" data-name="Group 9" transform="translate(8.273 511)" opacity="0.5"><path _ngcontent-xbr-c69="" id="p_6" data-name="p 6" d="M452.251,729h.99c3-2.214,2.156-6.442-.057-9.443L436.1,697.73a6.753,6.753,0,0,0-9.443-1.426h2.472a6.752,6.752,0,0,0-1.427,9.441l16.1,21.825C446.012,730.572,449.25,731.21,452.251,729Z" transform="translate(-403.304 -610.315)" fill="url(#l-g)"/><path _ngcontent-xbr-c69="" id="p_7" data-name="p 7" d="M392.733,714.59l.029-.022a30.324,30.324,0,0,1-3.19-6.7,11.484,11.484,0,0,1,2.271-11.109c28.343-32.566,38.63-63.321,38.63-63.321l2.281-4.065,8.679,11.767,16.618,28.044,21.885,24.16,8.679,11.767-4.556.978s-31.883.734-70.921,17.774a13.325,13.325,0,0,1-13.755-1.811,31.049,31.049,0,0,1-3.974-3.895l-.029.022q-.731-.889-1.365-1.762T392.733,714.59Z" transform="translate(-389.005 -628.496)" fill="url(#l-g-2)"/><path _ngcontent-xbr-c69="" id="p_8" data-name="p 8" d="M391.854,682.667q.521-.6,1.033-1.2a31.427,31.427,0,0,0,3.2,6.634l-.029.023q.653,1,1.324,1.889c.438.6.907,1.211,1.413,1.822l.031-.021c.061.071.121.142.183.212a17.884,17.884,0,0,0,20.455,4.707,229.4,229.4,0,0,1,61.14-16.567l8.015,10.865-4.557.978s-31.883.734-70.921,17.774a13.326,13.326,0,0,1-13.755-1.811,31.024,31.024,0,0,1-3.974-3.9l-.029.022q-.731-.889-1.365-1.762t-1.281-1.825l.029-.022a30.31,30.31,0,0,1-3.192-6.7A11.5,11.5,0,0,1,391.854,682.667Z" transform="translate(-389.004 -614.421)" opacity="0.21" fill="url(#l-g-3)"/><g _ngcontent-xbr-c69="" id="Group_8" data-name="Group 8" transform="translate(41.632)"><g _ngcontent-xbr-c69="" id="Group_7" data-name="Group 7" clip-path="url(#clip-p)"><path _ngcontent-xbr-c69="" id="p_9" data-name="p 9" d="M428.451,659.276c15.426,20.915,22.981,41.52,16.875,46.023s-23.561-8.8-38.986-29.715-22.981-41.519-16.875-46.023S413.025,638.363,428.451,659.276Z" transform="translate(-387.348 -628.685)" fill="url(#l-g-4)"/><path _ngcontent-xbr-c69="" id="p_10" data-name="p 10" d="M407.488,670.756l32.032-15.54,6.5,10.708-27.008,23.542Z" transform="translate(-411.643 -621.334)" fill="url(#l-g-5)"/><path _ngcontent-xbr-c69="" id="p_11" data-name="p 11" d="M412.018,659.69c1.858,2.918,2.784,5.652,2.07,6.108s-2.8-1.542-4.659-4.46-2.785-5.652-2.07-6.108S410.16,656.772,412.018,659.69Z" transform="translate(-379.481 -621.348)" fill="url(#l-g-6)"/></g></g></g><g _ngcontent-xbr-c69="" id="Group_6" data-name="Group 6" transform="translate(0 1)"><g _ngcontent-xbr-c69="" id="Group_5" data-name="Group 5" clip-path="url(#clip-p-2)"><g _ngcontent-xbr-c69="" id="Group_4" data-name="Group 4" transform="translate(-190.885 577.912)"><path _ngcontent-xbr-c69="" id="p_4" data-name="p 4" d="M2135.1,734.725c-104.327,5.625-212.644,10.7-309.641-24.811-140.429-51.414-241.009-164.231-365.9-242.189-74.935-46.778-167.55-59.777-252.951-44.547C1135.1,435.93,1006.939,479.25,928.228,420.9V777.208L2135.1,772.914Z" transform="translate(-792.788 -417.12)" fill="#d4eeff"/><path _ngcontent-xbr-c69="" id="p_5" data-name="p 5" d="M2088.293,755.6c-104.327,5.626-212.644,10.7-309.64-24.814-140.43-51.411-241.009-164.228-365.9-242.189-74.937-46.775-167.553-59.774-252.954-44.544-71.511,12.75-199.668,56.073-278.379-2.28V798.08l1206.869-4.3Z" transform="translate(-881.424 -377.595)" fill="#e9f6ff"/></g></g></g></g></svg>