<svg _ngcontent-xbr-c67="" xmlns="http://www.w3.org/2000/svg" viewBox="0 0 793.653 766.962" class="ng-tns-c67-0"><defs _ngcontent-xbr-c67="" class="ng-tns-c67-0"><clipPath _ngcontent-xbr-c67="" id="takc5ivzea" class="ng-tns-c67-0"><path _ngcontent-xbr-c67="" fill="none" d="M0 0H793.653V766.962H0z" transform="translate(471)" class="ng-tns-c67-0"/></clipPath></defs><g _ngcontent-xbr-c67="" class="ng-tns-c67-0"><g _ngcontent-xbr-c67="" clip-path="url(#takc5ivzea)" transform="translate(-471)" class="ng-tns-c67-0"><g _ngcontent-xbr-c67="" class="ng-tns-c67-0"><path _ngcontent-xbr-c67="" fill="#d4eeff" d="M1131.112 195.2c-71.74 233.89 44.691 411.105 267.206 413.9 70.654.888 140.322 45.508 180.3 105.872 42.087 63.55 38.805 148.188 68.918 218.663 36.777 86.081 121.114 142.637 209.272 165.388s180.693 16.269 271.055 6.482V195.2z" transform="translate(470.54 -172.751) translate(-1109.991 -86.72)" class="ng-tns-c67-0"/><path _ngcontent-xbr-c67="" fill="#e9f6ff" d="M1387.409 547.078c168.948 41.624 152.071 109.2 208.069 208.072 72.3 127.651 295.7 152.2 445.955 4.459 64.479-63.4 83-152.948 93.18-238.164q8.325-69.716 12.7-139.749c1.337-21.42 2.361-43.213-3.395-64.034-7.177-25.969-24.565-48.885-45.2-68.189-27.647-25.859-61.664-46.2-98.9-59.137-44.449-15.444-92.514-20.228-140.047-23.393-88.44-5.892-177.195-6.656-265.875-7.417-85.946-.738-172.655-1.458-257.625 11.873-20.25 3.177-45.279 5.316-64.077 13.065-19.411 8-15.632 15.577-29.89 31.875-121.03 138.361-1.412 294.642 145.105 330.739z" transform="translate(470.54 -172.751) translate(-953.72 -154.919)" class="ng-tns-c67-0"/><path _ngcontent-xbr-c67="" fill="#fff" d="M1490.23 545.6c168.948 41.624 163.287 103.644 208.069 208.071 60.338 140.7 335.575 109.747 445.955 4.459 65.431-62.413 83-152.945 93.177-238.164q8.329-69.716 12.707-139.749c1.337-21.42 2.361-43.21-3.395-64.034-7.176-25.966-24.565-48.885-45.207-68.189-27.645-25.856-61.661-46.2-98.9-59.134-44.448-15.447-92.514-20.23-140.047-23.4-88.44-5.889-177.195-6.653-265.875-7.417-85.945-.738-172.657-1.458-257.625 11.873-20.251 3.177-45.282 5.316-64.08 13.065-19.408 8-15.629 15.58-29.887 31.878-121.03 138.365-1.41 294.649 145.108 330.741z" opacity="0.36" transform="translate(470.54 -172.751) translate(-759.003 -157.714)" class="ng-tns-c67-0"/></g></g></g></svg>